PathFileType	4	(X/Y/Z)	C:/Users/beibeiliu/ov580/test_trc/User1\sequence.4_training_dense_left.trc
DataRate	CameraRate	NumFrames	NumMarkers	Units	OrigDataRate	OrigDataStartFrame	OrigNumFrames
120	120	10	19	mm	120	95	251
Frame#	Time	ThumbCMC			ThumbMCP			ThumbIP			ThumbTip			IndexMCP			IndexPIP			IndexTip			MiddleMCP			MiddlePIP			MiddleTip			RingMCP			RingPIP			RingTip			PinkyMCP			PinkyPIP			PinkyTip			BackHand1			BackHand2			BackHand3	
		X0	Y0	Z0	X1	Y1	Z1	X2	Y2	Z2	X3	Y3	Z3	X4	Y4	Z4	X5	Y5	Z5	X6	Y6	Z6	X7	Y7	Z7	X8	Y8	Z8	X9	Y9	Z9	X10	Y10	Z10	X11	Y11	Z11	X12	Y12	Z12	X13	Y13	Z13	X14	Y14	Z14	X15	Y15	Z15	X16	Y16	Z16	X17	Y17	Z17	X18	Y18	Z18	
94	0.783333	-138.048	135.975	26.5977	-107.981	105.475	14.6753	-99.5394	85.8856	-10.0072	-111.267	67.9593	-26.9661	-99.3984	118.327	-40.6652	-99.6577	90.3001	-26.8839	-116.475	106.79	-1.5173	-116.205	102.865	-52.0247	-112.355	80.8359	-25.8305	-138.995	103.662	-4.54725	-138.367	86.5313	-48.3218	-133.024	73.5783	-20.3293	-154.549	97.936	-1.81253	-158.902	80.8712	-39.7257	-155.72	71.5899	-12.6297	-166.515	102.827	3.63253	-177.71	132.723	-27.3422	-198.853	141.663	-0.645319	-164.185	153.641	-3.25904	
95	0.791667	-134.78	130.296	26.0163	-111.12	97.513	15.2046	-106.521	79.611	-11.9207	-117.316	58.5641	-29.1365	-100.172	108.517	-42.9976	-104.429	81.6965	-26.2436	-121.022	104.095	-2.06238	-121.963	95.836	-54.5468	-117.545	73.0077	-31.297	-140.886	98.1708	-6.18255	-143.959	82.8538	-49.8062	-141.138	68.2448	-23.5889	-155.594	91.7668	-3.79875	-168.119	80.1233	-43.9488	-161.483	73.1548	-11.4761	-166.701	102.546	-0.244264	-177.174	134.057	-32.0488	-194.242	142.932	0.899181	-154.903	155.219	-1.82712	
96	0.8	-131.07	123.004	25.3004	-114.228	89.6092	10.5644	-107.886	66.8178	-13.5814	-127.201	54.5818	-32.1845	-101.914	101.943	-42.4408	-103.674	72.8297	-26.246	-121.259	95.6221	-0.988409	-125.79	93.1123	-53.7953	-126.593	66.07	-30.6471	-141.827	90.5004	-5.77853	-144.018	81.3735	-50.9113	-145.19	64.3801	-21.9732	-158.323	89.278	-4.54691	-167.578	77.7346	-43.9466	-164.547	71.0516	-15.5015	-171.634	97.4013	-0.51137	-175.064	133.29	-30.9819	-192.375	145.806	-2.53337	-150.597	149.798	1.84529	
97	0.808333	-131.06	116.026	26.2728	-116.292	80.3952	12.2238	-116.399	62.1607	-10.7037	-134.776	48.4306	-35.0019	-102.258	96.4331	-42.3379	-108.676	64.2073	-26.4824	-120.895	87.6916	-0.636785	-129.093	86.8114	-54.8849	-130.451	60.4923	-30.0806	-142.159	86.7851	-4.72958	-148.125	78.4176	-52.0729	-153.557	59.5336	-25.3541	-162.279	85.2508	-4.7847	-171.701	77.7497	-46.0892	-167.56	68.1747	-17.2451	-172.335	96.0075	-0.22764	-169.466	134.117	-28.8339	-190.113	144.379	3.19177	-147.609	144.466	-1.50218	
98	0.816667	-127.201	109.325	28.8042	-116.831	70.3018	14.036	-118.637	52.1723	-14.628	-138.904	45.1213	-33.6311	-106.335	87.0388	-43.149	-114.432	57.3205	-27.5994	-124.183	78.4544	-1.90927	-129.545	80.8917	-54.5272	-133.091	54.5915	-34.5296	-145.069	83.5188	-5.14177	-152.578	74.8645	-52.787	-158.553	55.9664	-28.4468	-162.826	79.6482	-5.3216	-174.358	77.7134	-46.432	-171.542	66.0356	-19.7079	-173.789	93.9934	-0.290022	-167.98	130.712	-28.8031	-186.57	143.68	3.63403	-143.565	139.93	4.69347	
99	0.825	-128.202	100.375	25.002	-120.802	62.536	10.1734	-122.941	43.6366	-11.9472	-143.579	35.951	-33.7929	-108.414	74.6875	-43.5698	-119.794	48.4096	-31.3477	-127.187	71.7132	-2.17595	-131.673	75.6208	-54.8687	-139.223	48.7952	-32.0058	-146.264	77.6688	-4.37244	-155.901	69.6147	-53.1528	-159.819	52.2138	-27.4044	-162.437	76.9309	-4.54738	-174.936	78.9072	-47.7645	-175.855	62.17	-22.5859	-173.229	87.4421	-2.9774	-166.54	129.637	-27.2723	-178.568	141.517	3.2849	-141.455	136.142	4.43239	
100	0.833333	-130.801	91.5781	31.1541	-124.311	51.6594	11.5241	-129.092	35.9457	-11.6292	-148.863	28.781	-35.9582	-109.323	66.7617	-41.4897	-125.58	41.1594	-32.418	-130.809	65.4194	-2.27711	-133.771	64.9499	-55.2811	-145.4	42.2899	-34.7624	-147.389	69.5489	-3.69741	-155.817	69.634	-53.6044	-163.809	48.4472	-29.2798	-166.196	74.6689	-3.92171	-180.198	75.8222	-48.4718	-178.303	60.2864	-23.4846	-174.02	84.5989	-1.57259	-161.024	125.544	-25.8102	-172.56	138.739	9.59726	-134.254	124.976	7.14884	
101	0.841667	-127.798	79.5577	28.6607	-131.774	46.0808	12.0179	-136.737	31.3789	-13.6293	-154.535	26.1648	-36.3932	-111.983	56.1188	-40.9691	-130.229	32.8144	-32.3761	-133.683	58.9137	-2.05799	-134.679	62.8254	-53.3324	-152.951	38.5082	-33.1485	-154.686	63.4281	-6.01585	-157.416	64.6146	-53.3689	-171.962	46.6553	-26.7425	-168.755	69.8791	-4.29976	-180.265	75.2914	-48.8494	-181.024	58.4043	-25.7267	-176.006	82.5365	-0.939896	-155.293	121.963	-22.4365	-167.228	133.544	7.11657	-127.636	116.976	6.7564	
102	0.85	-128.367	70.8657	29.9105	-133.192	35.8393	9.47671	-141.234	23.293	-13.9283	-160.43	21.596	-37.4063	-114.807	44.7134	-41.9845	-135.911	25.2265	-30.7577	-137.665	48.7319	-4.1985	-139.771	54.8173	-55.2072	-153.772	30.5014	-34.4885	-155.831	56.6367	-4.54012	-162.919	62.0247	-53.2016	-173.47	42.1996	-27.2327	-171.326	66.3296	-4.04003	-179.293	74.0204	-47.2066	-182.966	56.2105	-23.1015	-177.648	78.6855	-0.139364	-154.227	116.051	-22.1299	-160.555	127.609	10.3584	-128.481	109.916	6.96584	
103	0.858333	-132.889	65.6682	27.9832	-137.824	31.7606	10.3446	-145.149	14.808	-14.0169	-165.218	15.2172	-38.9168	-120.859	40.7312	-44.5113	-142.818	20.4244	-31.6777	-137.675	42.8105	-3.42974	-142.956	49.3098	-55.063	-161.32	27.2415	-34.1239	-158.254	48.6026	-5.44351	-163.825	55.656	-52.6626	-176.54	36.9979	-28.5241	-170.956	61.9456	-3.62993	-183.291	67.8251	-47.1898	-185.602	51.9865	-22.1309	-175.396	73.8219	1.152	-154.583	109.29	-21.8138	-160.238	122.58	10.274	-129.525	102.445	6.76918	
